<svg version="1.1" id="Layer_1" xmlns="http://www.w3.org/2000/svg" xmlns:xlink="http://www.w3.org/1999/xlink" x="0px" y="0px"
	 width="100%" viewBox="0 0 545 557" enable-background="new 0 0 545 557" xml:space="preserve">
<path fill="#FEFEFE" opacity="1.000000" stroke="none" 
	d="
M235.000000,558.000000 
	C157.015701,558.000000 79.031403,558.000000 1.023550,558.000000 
	C1.023550,372.386414 1.023550,186.772812 1.023550,1.079608 
	C182.576996,1.079608 364.154022,1.079608 545.865540,1.079608 
	C545.865540,186.666611 545.865540,372.333282 545.865540,558.000000 
	C462.564087,558.000000 379.247040,558.000000 295.456421,557.647705 
	C292.655731,552.440796 288.559784,547.687988 288.273621,542.715881 
	C285.223541,489.717102 282.757050,436.684479 280.198151,383.657898 
	C279.952789,378.573395 280.165405,373.466797 280.165405,368.220856 
	C319.195404,360.091858 357.480438,349.639740 394.862762,335.999115 
	C404.847778,332.355652 414.833374,328.710907 424.768188,324.933899 
	C430.430084,322.781433 432.917328,316.772858 430.810638,310.940247 
	C429.211243,306.512268 425.557251,304.685272 420.764496,306.472076 
	C386.876404,319.105835 351.800201,326.410522 315.859222,329.561096 
	C305.871857,330.436554 295.928772,333.125305 285.671875,330.329224 
	C280.751831,328.988007 278.592865,326.705292 278.493347,321.819489 
	C278.035492,299.348663 277.533295,276.878632 276.989990,254.409714 
	C276.708282,242.760315 276.517792,231.102203 275.877106,219.470581 
	C275.530853,213.184952 271.956635,208.304550 268.559875,208.078354 
	C264.980804,207.840012 261.598358,211.902374 260.825745,218.889984 
	C259.876495,227.474869 259.592224,236.139175 259.183838,244.776871 
	C258.020386,269.385315 256.992004,294.000214 255.803162,318.607391 
	C255.259735,329.855164 249.067291,335.746613 237.672821,336.132690 
	C232.183502,336.318695 226.686722,336.302917 221.199478,336.528290 
	C198.156677,337.474426 175.271713,336.123108 152.655167,331.513336 
	C142.397278,329.422546 132.266418,326.713409 122.031204,324.501068 
	C120.428444,324.154633 117.716927,324.388153 117.051971,325.380890 
	C116.181061,326.681183 116.313301,329.197479 116.929878,330.848755 
	C118.840401,335.965240 122.835815,338.900635 127.867157,341.023590 
	C157.127518,353.369934 188.032501,358.698456 219.212143,363.095490 
	C230.520218,364.690186 241.701614,367.183136 253.185272,369.311523 
	C253.014847,373.153015 252.924911,376.290314 252.728760,379.420929 
	C251.490128,399.190430 250.225449,418.958344 248.974091,438.727051 
	C246.807922,472.947540 244.605515,507.165833 242.515564,541.390991 
	C242.114166,547.964111 240.238892,553.699280 235.000000,558.000000 
M17.890545,345.459381 
	C17.315933,352.564880 16.772114,359.673065 16.153936,366.774780 
	C15.836952,370.416382 17.548466,371.725647 21.047831,371.836334 
	C34.334454,372.256683 47.249924,370.710510 59.409958,364.977997 
	C84.175087,353.303131 91.730812,330.589600 88.863113,308.815033 
	C88.302025,304.554749 86.395508,302.273224 81.595436,301.704407 
	C53.761787,298.406342 25.366224,310.165070 17.890545,345.459381 
M424.682190,276.205841 
	C454.196991,253.650040 455.980164,212.472778 428.344421,187.847366 
	C416.279602,194.587448 406.023895,203.375977 398.695496,215.279099 
	C386.266571,235.466690 387.538696,257.716064 402.037933,276.247986 
	C408.919678,285.043671 410.916107,285.367798 420.421997,279.197205 
	C421.677460,278.382202 422.892334,277.504730 424.682190,276.205841 
M349.854858,212.409119 
	C362.183380,205.535767 371.502502,195.727493 378.602753,183.762604 
	C368.628113,173.858093 355.171387,166.406876 342.040039,163.336380 
	C318.219635,157.766464 293.783295,169.171646 283.390778,190.672241 
	C281.857422,193.844498 281.001190,196.673965 284.033173,199.691666 
	C297.644470,213.238922 322.758972,226.483719 349.854858,212.409119 
M19.782177,226.119247 
	C14.892512,227.688431 10.027819,229.342239 5.103949,230.795532 
	C2.085266,231.686508 1.307915,233.330490 2.190964,236.325989 
	C5.958592,249.106644 11.810222,260.720459 21.077450,270.420776 
	C37.712589,287.833282 64.382774,291.615143 84.685585,279.621460 
	C87.655388,277.867065 89.771065,275.970642 88.937057,272.171234 
	C84.869270,253.639954 76.209274,238.234772 58.631321,229.436188 
	C46.535767,223.381821 33.626896,223.463013 19.782177,226.119247 
M228.185028,297.707062 
	C244.437485,284.238190 250.916687,262.844177 245.002945,242.842941 
	C243.837799,238.902191 241.744705,236.818451 237.592285,237.083466 
	C233.287781,237.358200 228.948364,237.413498 224.689346,238.021225 
	C189.870438,242.989639 168.317154,279.086761 180.184555,313.029907 
	C197.443085,312.851501 213.586121,308.954041 228.185028,297.707062 
M452.608521,273.182922 
	C451.427307,274.989105 449.756317,276.658630 449.203522,278.640076 
	C448.657593,280.596924 448.388000,283.549744 449.462402,284.898163 
	C460.707581,299.011444 474.787262,308.528473 493.415253,308.919586 
	C515.362000,309.380310 530.863770,297.301544 544.030212,281.369263 
	C544.659363,280.608002 544.367615,278.116516 543.592346,277.329559 
	C539.984192,273.666992 536.264282,270.049591 532.200684,266.913116 
	C520.431335,257.829071 507.175385,252.285538 492.138885,252.557526 
	C475.987457,252.849686 463.272278,260.456604 452.608521,273.182922 
M121.993774,233.535141 
	C120.028687,237.189133 117.786514,240.723099 116.143364,244.516541 
	C105.249840,269.665833 112.865829,296.128998 134.795914,310.537903 
	C138.895981,313.231781 142.011963,313.316742 145.792480,309.924896 
	C180.933273,278.396912 170.186508,238.694733 137.120468,215.081268 
	C132.244156,220.981552 127.310036,226.951767 121.993774,233.535141 
M91.392944,222.140106 
	C94.161644,223.527786 96.930351,224.915466 99.878777,226.393234 
	C110.532173,210.845016 116.778305,194.399948 114.718834,175.875137 
	C112.307724,154.187500 99.494415,140.411102 79.521240,132.800400 
	C76.854813,131.784378 74.181351,130.951920 71.830772,133.811218 
	C59.815041,148.427399 53.044430,172.327545 61.523258,191.358795 
	C67.618393,205.039734 78.203476,214.348419 91.392944,222.140106 
M512.160400,178.387115 
	C508.538910,169.700089 504.937286,161.004715 501.283478,152.331299 
	C500.230896,149.832748 498.671448,149.571167 496.138214,150.760406 
	C483.239349,156.815857 472.112579,165.054489 464.018219,176.891220 
	C450.561829,196.569061 451.876678,222.469727 466.895386,239.833130 
	C469.049408,242.323425 471.062805,243.600937 474.612305,242.283615 
	C496.605164,234.121613 519.672363,212.849884 512.160400,178.387115 
M375.808258,274.870789 
	C366.146179,239.732376 337.428864,230.233047 309.361023,234.950943 
	C305.117615,235.664230 303.143066,237.615631 302.765198,242.076401 
	C301.613647,255.670532 304.348206,268.203796 312.296082,279.360046 
	C324.957581,297.132690 354.383911,306.419312 379.244415,299.922577 
	C378.173676,291.957764 377.079102,283.815826 375.808258,274.870789 
M183.927383,15.464776 
	C181.400589,24.525747 177.769409,33.442730 176.565521,42.676189 
	C173.608582,65.355217 189.640640,89.008972 211.270081,95.584709 
	C214.197571,96.474716 216.762527,96.486504 218.843201,93.775589 
	C230.159897,79.031013 236.308350,62.817657 232.136139,44.050224 
	C228.609009,28.184498 218.446899,16.826448 205.211914,8.363201 
	C190.657364,-0.943871 193.782150,-1.306654 185.174316,13.027411 
	C184.832108,13.597263 184.525681,14.188601 183.927383,15.464776 
M186.555786,157.488892 
	C169.863708,158.136246 155.466873,164.485931 142.383942,174.825058 
	C146.859314,184.546341 153.013260,192.490631 160.394257,199.541718 
	C181.863007,220.050797 212.517914,221.074738 233.499191,202.273438 
	C237.454636,198.728958 238.020889,195.503723 235.600418,191.020645 
	C225.170380,171.702560 210.535477,158.528183 186.555786,157.488892 
M165.801819,462.899506 
	C167.468201,463.885742 169.134567,464.871979 170.699875,465.798401 
	C181.548203,455.850220 190.482819,437.154785 191.845505,421.883209 
	C193.777542,400.230957 181.458405,378.921783 161.879440,370.630615 
	C159.854919,369.773285 156.053284,369.688782 154.801208,370.953430 
	C140.081619,385.821686 131.946609,403.212921 136.852478,424.595886 
	C140.677734,441.268829 151.805573,452.786560 165.801819,462.899506 
M358.439941,456.991699 
	C372.669739,446.296875 382.522278,432.945831 382.759003,414.422058 
	C382.991486,396.233398 375.088318,381.205872 363.678650,367.467560 
	C350.439636,374.928619 339.721649,384.229309 332.466553,397.006042 
	C321.772980,415.838135 322.160187,434.776306 334.466248,452.519897 
	C344.573456,467.093018 344.610535,465.805389 358.439941,456.991699 
M278.897766,177.316101 
	C300.585175,139.746323 276.660492,107.954147 249.065292,95.278679 
	C241.503036,103.833260 235.141861,115.981247 232.336624,127.225594 
	C226.247147,151.634171 235.211670,174.357697 256.275085,186.494064 
	C268.003510,193.251770 267.673859,192.901352 275.812500,182.137268 
	C276.812378,180.814850 277.613495,179.342133 278.897766,177.316101 
M369.326660,142.002228 
	C366.208923,152.375458 366.472839,153.016647 375.940430,157.864456 
	C377.122192,158.469574 378.321381,159.044739 379.535034,159.582977 
	C413.995026,174.865463 453.083557,154.636108 459.150299,117.466316 
	C452.445374,114.859352 445.686340,111.659386 438.599274,109.574509 
	C407.481506,100.420242 380.478424,112.982719 369.326660,142.002228 
M114.711227,364.828552 
	C113.189247,362.255219 111.574066,359.731415 110.171555,357.094543 
	C108.777390,354.473358 107.133354,354.267242 104.548233,355.576630 
	C91.703865,362.082520 80.683205,370.667511 72.826225,382.911591 
	C60.640873,401.900909 61.915890,426.094330 76.039772,443.425171 
	C78.302551,446.201782 80.467102,449.494354 85.077789,447.524506 
	C102.162392,440.225281 115.645882,429.275360 121.181389,410.799133 
	C125.948914,394.886200 122.110931,379.920837 114.711227,364.828552 
M501.806122,389.897949 
	C508.555206,389.176605 515.481140,389.176514 522.014465,387.575012 
	C533.537109,384.750488 534.467163,383.021240 531.947449,371.543060 
	C527.481384,351.199036 517.355774,335.055084 496.514313,328.285156 
	C480.950958,323.229797 465.410095,325.188934 450.195709,330.324280 
	C451.011200,351.784760 467.541687,386.865784 501.806122,389.897949 
M301.335724,87.814293 
	C329.058929,57.899212 313.732880,21.513283 291.513824,3.300766 
	C281.024353,10.701555 272.498810,19.885048 266.337341,31.205259 
	C253.927170,54.006012 258.950165,80.684982 278.516968,97.185097 
	C282.436279,100.490135 285.912445,101.309776 289.925842,97.812065 
	C293.559723,94.645058 297.197906,91.482956 301.335724,87.814293 
M179.299438,99.217331 
	C173.590866,95.299538 168.344711,90.260742 162.085159,87.678635 
	C144.787704,80.543312 127.507477,83.476196 110.716080,90.266357 
	C109.718285,90.669861 108.928062,93.602661 109.293442,95.040230 
	C112.060860,105.928596 116.638008,116.033600 123.639839,124.895386 
	C140.209854,145.867065 165.719620,152.044403 188.789627,140.763077 
	C195.664322,137.401306 196.349686,136.097290 194.581223,128.740723 
	C191.974777,117.898331 187.208481,108.132896 179.299438,99.217331 
M458.876892,415.201874 
	C458.916351,411.870056 459.082703,408.534119 458.975128,405.207031 
	C458.141815,379.429108 438.651917,358.215973 413.012970,355.476044 
	C411.031982,355.264343 407.772736,356.546051 406.889526,358.128357 
	C396.623962,376.518860 393.460602,405.745758 414.511078,425.246246 
	C423.896973,433.941071 435.006012,439.279144 447.108032,442.925751 
	C450.351868,443.903229 452.121796,442.933350 452.913025,439.772583 
	C454.886017,431.890656 456.860199,424.009064 458.876892,415.201874 
M350.554047,123.092049 
	C357.808655,118.792549 365.823273,115.391228 372.170807,110.019814 
	C389.071808,95.717804 394.124451,71.932945 385.327545,51.796764 
	C384.441864,49.769485 381.839478,47.018398 380.097229,47.063358 
	C358.766388,47.613808 341.006104,55.492210 330.352478,74.798615 
	C321.473755,90.888603 322.657867,108.161469 327.267273,125.310066 
	C327.585571,126.494179 330.214539,128.060501 331.458496,127.823013 
	C337.638428,126.643158 343.714172,124.917908 350.554047,123.092049 
z"/>
<path fill="#022A68" opacity="1.000000" stroke="none" 
	d="
M235.468658,558.000000 
	C240.238892,553.699280 242.114166,547.964111 242.515564,541.390991 
	C244.605515,507.165833 246.807922,472.947540 248.974091,438.727051 
	C250.225449,418.958344 251.490128,399.190430 252.728760,379.420929 
	C252.924911,376.290314 253.014847,373.153015 253.185272,369.311523 
	C241.701614,367.183136 230.520218,364.690186 219.212143,363.095490 
	C188.032501,358.698456 157.127518,353.369934 127.867157,341.023590 
	C122.835815,338.900635 118.840401,335.965240 116.929878,330.848755 
	C116.313301,329.197479 116.181061,326.681183 117.051971,325.380890 
	C117.716927,324.388153 120.428444,324.154633 122.031204,324.501068 
	C132.266418,326.713409 142.397278,329.422546 152.655167,331.513336 
	C175.271713,336.123108 198.156677,337.474426 221.199478,336.528290 
	C226.686722,336.302917 232.183502,336.318695 237.672821,336.132690 
	C249.067291,335.746613 255.259735,329.855164 255.803162,318.607391 
	C256.992004,294.000214 258.020386,269.385315 259.183838,244.776871 
	C259.592224,236.139175 259.876495,227.474869 260.825745,218.889984 
	C261.598358,211.902374 264.980804,207.840012 268.559875,208.078354 
	C271.956635,208.304550 275.530853,213.184952 275.877106,219.470581 
	C276.517792,231.102203 276.708282,242.760315 276.989990,254.409714 
	C277.533295,276.878632 278.035492,299.348663 278.493347,321.819489 
	C278.592865,326.705292 280.751831,328.988007 285.671875,330.329224 
	C295.928772,333.125305 305.871857,330.436554 315.859222,329.561096 
	C351.800201,326.410522 386.876404,319.105835 420.764496,306.472076 
	C425.557251,304.685272 429.211243,306.512268 430.810638,310.940247 
	C432.917328,316.772858 430.430084,322.781433 424.768188,324.933899 
	C414.833374,328.710907 404.847778,332.355652 394.862762,335.999115 
	C357.480438,349.639740 319.195404,360.091858 280.165405,368.220856 
	C280.165405,373.466797 279.952789,378.573395 280.198151,383.657898 
	C282.757050,436.684479 285.223541,489.717102 288.273621,542.715881 
	C288.559784,547.687988 292.655731,552.440796 294.991394,557.647705 
	C275.312439,558.000000 255.624878,558.000000 235.468658,558.000000 
z"/>
<path fill="#022B68" opacity="1.000000" stroke="none" 
	d="
M17.953796,345.041870 
	C25.366224,310.165070 53.761787,298.406342 81.595436,301.704407 
	C86.395508,302.273224 88.302025,304.554749 88.863113,308.815033 
	C91.730812,330.589600 84.175087,353.303131 59.409958,364.977997 
	C47.249924,370.710510 34.334454,372.256683 21.047831,371.836334 
	C17.548466,371.725647 15.836952,370.416382 16.153936,366.774780 
	C16.772114,359.673065 17.315933,352.564880 17.953796,345.041870 
z"/>
<path fill="#022B68" opacity="1.000000" stroke="none" 
	d="
M424.404114,276.431030 
	C422.892334,277.504730 421.677460,278.382202 420.421997,279.197205 
	C410.916107,285.367798 408.919678,285.043671 402.037933,276.247986 
	C387.538696,257.716064 386.266571,235.466690 398.695496,215.279099 
	C406.023895,203.375977 416.279602,194.587448 428.344421,187.847366 
	C455.980164,212.472778 454.196991,253.650040 424.404114,276.431030 
z"/>
<path fill="#022A68" opacity="1.000000" stroke="none" 
	d="
M349.538635,212.608124 
	C322.758972,226.483719 297.644470,213.238922 284.033173,199.691666 
	C281.001190,196.673965 281.857422,193.844498 283.390778,190.672241 
	C293.783295,169.171646 318.219635,157.766464 342.040039,163.336380 
	C355.171387,166.406876 368.628113,173.858093 378.602753,183.762604 
	C371.502502,195.727493 362.183380,205.535767 349.538635,212.608124 
z"/>
<path fill="#0387D1" opacity="1.000000" stroke="none" 
	d="
M20.201643,226.055359 
	C33.626896,223.463013 46.535767,223.381821 58.631321,229.436188 
	C76.209274,238.234772 84.869270,253.639954 88.937057,272.171234 
	C89.771065,275.970642 87.655388,277.867065 84.685585,279.621460 
	C64.382774,291.615143 37.712589,287.833282 21.077450,270.420776 
	C11.810222,260.720459 5.958592,249.106644 2.190964,236.325989 
	C1.307915,233.330490 2.085266,231.686508 5.103949,230.795532 
	C10.027819,229.342239 14.892512,227.688431 20.201643,226.055359 
z"/>
<path fill="#0387D1" opacity="1.000000" stroke="none" 
	d="
M227.906174,297.931396 
	C213.586121,308.954041 197.443085,312.851501 180.184555,313.029907 
	C168.317154,279.086761 189.870438,242.989639 224.689346,238.021225 
	C228.948364,237.413498 233.287781,237.358200 237.592285,237.083466 
	C241.744705,236.818451 243.837799,238.902191 245.002945,242.842941 
	C250.916687,262.844177 244.437485,284.238190 227.906174,297.931396 
z"/>
<path fill="#0387D1" opacity="1.000000" stroke="none" 
	d="
M452.825439,272.895630 
	C463.272278,260.456604 475.987457,252.849686 492.138885,252.557526 
	C507.175385,252.285538 520.431335,257.829071 532.200684,266.913116 
	C536.264282,270.049591 539.984192,273.666992 543.592346,277.329559 
	C544.367615,278.116516 544.659363,280.608002 544.030212,281.369263 
	C530.863770,297.301544 515.362000,309.380310 493.415253,308.919586 
	C474.787262,308.528473 460.707581,299.011444 449.462402,284.898163 
	C448.388000,283.549744 448.657593,280.596924 449.203522,278.640076 
	C449.756317,276.658630 451.427307,274.989105 452.825439,272.895630 
z"/>
<path fill="#022B68" opacity="1.000000" stroke="none" 
	d="
M122.184845,233.228561 
	C127.310036,226.951767 132.244156,220.981552 137.120468,215.081268 
	C170.186508,238.694733 180.933273,278.396912 145.792480,309.924896 
	C142.011963,313.316742 138.895981,313.231781 134.795914,310.537903 
	C112.865829,296.128998 105.249840,269.665833 116.143364,244.516541 
	C117.786514,240.723099 120.028687,237.189133 122.184845,233.228561 
z"/>
<path fill="#022A68" opacity="1.000000" stroke="none" 
	d="
M91.055969,221.991745 
	C78.203476,214.348419 67.618393,205.039734 61.523258,191.358795 
	C53.044430,172.327545 59.815041,148.427399 71.830772,133.811218 
	C74.181351,130.951920 76.854813,131.784378 79.521240,132.800400 
	C99.494415,140.411102 112.307724,154.187500 114.718834,175.875137 
	C116.778305,194.399948 110.532173,210.845016 99.878777,226.393234 
	C96.930351,224.915466 94.161644,223.527786 91.055969,221.991745 
z"/>
<path fill="#022A68" opacity="1.000000" stroke="none" 
	d="
M512.269958,178.796082 
	C519.672363,212.849884 496.605164,234.121613 474.612305,242.283615 
	C471.062805,243.600937 469.049408,242.323425 466.895386,239.833130 
	C451.876678,222.469727 450.561829,196.569061 464.018219,176.891220 
	C472.112579,165.054489 483.239349,156.815857 496.138214,150.760406 
	C498.671448,149.571167 500.230896,149.832748 501.283478,152.331299 
	C504.937286,161.004715 508.538910,169.700089 512.269958,178.796082 
z"/>
<path fill="#022A68" opacity="1.000000" stroke="none" 
	d="
M375.896393,275.272339 
	C377.079102,283.815826 378.173676,291.957764 379.244415,299.922577 
	C354.383911,306.419312 324.957581,297.132690 312.296082,279.360046 
	C304.348206,268.203796 301.613647,255.670532 302.765198,242.076401 
	C303.143066,237.615631 305.117615,235.664230 309.361023,234.950943 
	C337.428864,230.233047 366.146179,239.732376 375.896393,275.272339 
z"/>
<path fill="#0387D1" opacity="1.000000" stroke="none" 
	d="
M184.064972,15.117352 
	C184.525681,14.188601 184.832108,13.597263 185.174316,13.027411 
	C193.782150,-1.306654 190.657364,-0.943871 205.211914,8.363201 
	C218.446899,16.826448 228.609009,28.184498 232.136139,44.050224 
	C236.308350,62.817657 230.159897,79.031013 218.843201,93.775589 
	C216.762527,96.486504 214.197571,96.474716 211.270081,95.584709 
	C189.640640,89.008972 173.608582,65.355217 176.565521,42.676189 
	C177.769409,33.442730 181.400589,24.525747 184.064972,15.117352 
z"/>
<path fill="#022B68" opacity="1.000000" stroke="none" 
	d="
M186.986572,157.489166 
	C210.535477,158.528183 225.170380,171.702560 235.600418,191.020645 
	C238.020889,195.503723 237.454636,198.728958 233.499191,202.273438 
	C212.517914,221.074738 181.863007,220.050797 160.394257,199.541718 
	C153.013260,192.490631 146.859314,184.546341 142.383942,174.825058 
	C155.466873,164.485931 169.863708,158.136246 186.986572,157.489166 
z"/>
<path fill="#022A68" opacity="1.000000" stroke="none" 
	d="
M165.492889,462.686157 
	C151.805573,452.786560 140.677734,441.268829 136.852478,424.595886 
	C131.946609,403.212921 140.081619,385.821686 154.801208,370.953430 
	C156.053284,369.688782 159.854919,369.773285 161.879440,370.630615 
	C181.458405,378.921783 193.777542,400.230957 191.845505,421.883209 
	C190.482819,437.154785 181.548203,455.850220 170.699875,465.798401 
	C169.134567,464.871979 167.468201,463.885742 165.492889,462.686157 
z"/>
<path fill="#022A68" opacity="1.000000" stroke="none" 
	d="
M358.150940,457.203979 
	C344.610535,465.805389 344.573456,467.093018 334.466248,452.519897 
	C322.160187,434.776306 321.772980,415.838135 332.466553,397.006042 
	C339.721649,384.229309 350.439636,374.928619 363.678650,367.467560 
	C375.088318,381.205872 382.991486,396.233398 382.759003,414.422058 
	C382.522278,432.945831 372.669739,446.296875 358.150940,457.203979 
z"/>
<path fill="#022A68" opacity="1.000000" stroke="none" 
	d="
M278.702209,177.627579 
	C277.613495,179.342133 276.812378,180.814850 275.812500,182.137268 
	C267.673859,192.901352 268.003510,193.251770 256.275085,186.494064 
	C235.211670,174.357697 226.247147,151.634171 232.336624,127.225594 
	C235.141861,115.981247 241.503036,103.833260 249.065292,95.278679 
	C276.660492,107.954147 300.585175,139.746323 278.702209,177.627579 
z"/>
<path fill="#022A68" opacity="1.000000" stroke="none" 
	d="
M369.503906,141.652344 
	C380.478424,112.982719 407.481506,100.420242 438.599274,109.574509 
	C445.686340,111.659386 452.445374,114.859352 459.150299,117.466316 
	C453.083557,154.636108 413.995026,174.865463 379.535034,159.582977 
	C378.321381,159.044739 377.122192,158.469574 375.940430,157.864456 
	C366.472839,153.016647 366.208923,152.375458 369.503906,141.652344 
z"/>
<path fill="#0387D1" opacity="1.000000" stroke="none" 
	d="
M114.860985,365.168640 
	C122.110931,379.920837 125.948914,394.886200 121.181389,410.799133 
	C115.645882,429.275360 102.162392,440.225281 85.077789,447.524506 
	C80.467102,449.494354 78.302551,446.201782 76.039772,443.425171 
	C61.915890,426.094330 60.640873,401.900909 72.826225,382.911591 
	C80.683205,370.667511 91.703865,362.082520 104.548233,355.576630 
	C107.133354,354.267242 108.777390,354.473358 110.171555,357.094543 
	C111.574066,359.731415 113.189247,362.255219 114.860985,365.168640 
z"/>
<path fill="#022A68" opacity="1.000000" stroke="none" 
	d="
M501.348816,389.867859 
	C467.541687,386.865784 451.011200,351.784760 450.195709,330.324280 
	C465.410095,325.188934 480.950958,323.229797 496.514313,328.285156 
	C517.355774,335.055084 527.481384,351.199036 531.947449,371.543060 
	C534.467163,383.021240 533.537109,384.750488 522.014465,387.575012 
	C515.481140,389.176514 508.555206,389.176605 501.348816,389.867859 
z"/>
<path fill="#022A68" opacity="1.000000" stroke="none" 
	d="
M301.084961,88.066498 
	C297.197906,91.482956 293.559723,94.645058 289.925842,97.812065 
	C285.912445,101.309776 282.436279,100.490135 278.516968,97.185097 
	C258.950165,80.684982 253.927170,54.006012 266.337341,31.205259 
	C272.498810,19.885048 281.024353,10.701555 291.513824,3.300766 
	C313.732880,21.513283 329.058929,57.899212 301.084961,88.066498 
z"/>
<path fill="#022A68" opacity="1.000000" stroke="none" 
	d="
M179.536575,99.480293 
	C187.208481,108.132896 191.974777,117.898331 194.581223,128.740723 
	C196.349686,136.097290 195.664322,137.401306 188.789627,140.763077 
	C165.719620,152.044403 140.209854,145.867065 123.639839,124.895386 
	C116.638008,116.033600 112.060860,105.928596 109.293442,95.040230 
	C108.928062,93.602661 109.718285,90.669861 110.716080,90.266357 
	C127.507477,83.476196 144.787704,80.543312 162.085159,87.678635 
	C168.344711,90.260742 173.590866,95.299538 179.536575,99.480293 
z"/>
<path fill="#0387D1" opacity="1.000000" stroke="none" 
	d="
M458.855408,415.664612 
	C456.860199,424.009064 454.886017,431.890656 452.913025,439.772583 
	C452.121796,442.933350 450.351868,443.903229 447.108032,442.925751 
	C435.006012,439.279144 423.896973,433.941071 414.511078,425.246246 
	C393.460602,405.745758 396.623962,376.518860 406.889526,358.128357 
	C407.772736,356.546051 411.031982,355.264343 413.012970,355.476044 
	C438.651917,358.215973 458.141815,379.429108 458.975128,405.207031 
	C459.082703,408.534119 458.916351,411.870056 458.855408,415.664612 
z"/>
<path fill="#0287D1" opacity="1.000000" stroke="none" 
	d="
M350.190338,123.238396 
	C343.714172,124.917908 337.638428,126.643158 331.458496,127.823013 
	C330.214539,128.060501 327.585571,126.494179 327.267273,125.310066 
	C322.657867,108.161469 321.473755,90.888603 330.352478,74.798615 
	C341.006104,55.492210 358.766388,47.613808 380.097229,47.063358 
	C381.839478,47.018398 384.441864,49.769485 385.327545,51.796764 
	C394.124451,71.932945 389.071808,95.717804 372.170807,110.019814 
	C365.823273,115.391228 357.808655,118.792549 350.190338,123.238396 
z"/>
</svg>